<svg xmlns="http://www.w3.org/2000/svg" version="1.1" xmlns:xlink="http://www.w3.org/1999/xlink" xmlns:svgjs="http://svgjs.com/svgjs" width="1440" height="560" preserveAspectRatio="none" viewBox="0 0 1440 560"><g mask="url(&quot;#SvgjsMask1040&quot;)" fill="none"><path d="M588.34 395.9 a112.34 112.34 0 1 0 224.68 0 a112.34 112.34 0 1 0 -224.68 0z" fill="rgba(28, 83, 142, 0.4)" class="triangle-float1"></path><path d="M6.98 31.99 a142.19 142.19 0 1 0 284.38 0 a142.19 142.19 0 1 0 -284.38 0z" fill="rgba(28, 83, 142, 0.4)" class="triangle-float1"></path><path d="M1175.24 134.79 a172.96 172.96 0 1 0 345.92 0 a172.96 172.96 0 1 0 -345.92 0z" fill="rgba(28, 83, 142, 0.4)" class="triangle-float1"></path><path d="M806.35 247.14 a99.86 99.86 0 1 0 199.72 0 a99.86 99.86 0 1 0 -199.72 0z" fill="rgba(28, 83, 142, 0.4)" class="triangle-float2"></path><path d="M-42.98 389.64 a112.52 112.52 0 1 0 225.04 0 a112.52 112.52 0 1 0 -225.04 0z" fill="rgba(28, 83, 142, 0.4)" class="triangle-float3"></path><path d="M373.76 78.89 a180.52 180.52 0 1 0 361.04 0 a180.52 180.52 0 1 0 -361.04 0z" fill="rgba(28, 83, 142, 0.4)" class="triangle-float2"></path></g><defs><mask id="SvgjsMask1040"><rect width="1440" height="560" fill="#ffffff"></rect></mask><style>
            @keyframes float1 {
                0%{transform: translate(0, 0)}
                50%{transform: translate(-10px, 0)}
                100%{transform: translate(0, 0)}
            }

            .triangle-float1 {
                animation: float1 5s infinite;
            }

            @keyframes float2 {
                0%{transform: translate(0, 0)}
                50%{transform: translate(-5px, -5px)}
                100%{transform: translate(0, 0)}
            }

            .triangle-float2 {
                animation: float2 4s infinite;
            }

            @keyframes float3 {
                0%{transform: translate(0, 0)}
                50%{transform: translate(0, -10px)}
                100%{transform: translate(0, 0)}
            }

            .triangle-float3 {
                animation: float3 6s infinite;
            }
        </style></defs></svg>