<svg xmlns="http://www.w3.org/2000/svg" version="1.1" xmlns:xlink="http://www.w3.org/1999/xlink" xmlns:svgjs="http://svgjs.com/svgjs" width="1440" height="560" preserveAspectRatio="none" viewBox="0 0 1440 560"><g mask="url(&quot;#SvgjsMask1108&quot;)" fill="none"><rect width="1440" height="560" x="0" y="0" fill="#1e3266"></rect><path d="M1464 560L0 560 L0 174.93Q60.82 115.75, 120 176.58Q131.49 116.07, 192 127.57Q234.49 98.06, 264 140.54Q346.79 103.33, 384 186.12Q413 143.13, 456 172.13Q470.28 114.41, 528 128.69Q595.4 76.09, 648 143.5Q725.16 100.67, 768 177.83Q771.87 109.7, 840 113.57Q905.82 59.39, 960 125.21Q1016.85 110.06, 1032 166.9Q1112.85 127.75, 1152 208.6Q1165.43 102.03, 1272 115.47Q1342.72 66.19, 1392 136.92Q1446.49 119.41, 1464 173.91z" fill="#182f5d"></path><path d="M1512 560L0 560 L0 373.1Q36.8 289.9, 120 326.7Q138 272.69, 192 290.69Q221.46 200.15, 312 229.61Q371.46 217.08, 384 276.54Q414.63 235.18, 456 265.81Q516.55 254.36, 528 314.9Q586.53 301.43, 600 359.96Q665.8 305.76, 720 371.56Q760.17 291.74, 840 331.91Q841.44 261.35, 912 262.79Q965.75 196.55, 1032 250.3Q1081.23 227.53, 1104 276.76Q1167.62 268.38, 1176 331.99Q1185.41 221.4, 1296 230.81Q1373.49 236.31, 1368 313.8Q1421.69 295.49, 1440 349.18Q1444.43 281.62, 1512 286.05z" fill="#25467d"></path><path d="M1560 560L0 560 L0 465.33Q72.4 417.73, 120 490.13Q149.14 399.27, 240 428.41Q319.45 387.87, 360 467.32Q360.38 395.7, 432 396.09Q450.96 343.05, 504 362.01Q532.37 318.38, 576 346.75Q635.67 334.42, 648 394.09Q718.74 392.83, 720 463.57Q774.65 398.22, 840 452.87Q837.01 377.88, 912 374.9Q953.67 296.57, 1032 338.24Q1128.43 314.68, 1152 411.11Q1167.51 354.62, 1224 370.13Q1249.01 323.13, 1296 348.14Q1352.09 332.23, 1368 388.32Q1444.56 392.88, 1440 469.44Q1511.07 420.5, 1560 491.57z" fill="#356cb1"></path><path d="M1488 560L0 560 L0 576.11Q11.97 468.08, 120 480.04Q162.69 450.73, 192 493.42Q214.08 443.5, 264 465.58Q294.37 423.94, 336 454.31Q402.59 448.9, 408 515.49Q436.26 471.75, 480 500.02Q532.56 432.58, 600 485.14Q715.33 480.47, 720 595.81Q725.63 529.44, 792 535.08Q803.97 475.05, 864 487.01Q935.48 438.49, 984 509.97Q1058.51 464.48, 1104 538.98Q1113.71 476.69, 1176 486.4Q1221.35 411.75, 1296 457.1Q1376.2 417.31, 1416 497.51Q1468.01 477.52, 1488 529.54z" fill="white"></path></g><defs><mask id="SvgjsMask1108"><rect width="1440" height="560" fill="#ffffff"></rect></mask></defs></svg>