<svg xmlns="http://www.w3.org/2000/svg" version="1.1" xmlns:xlink="http://www.w3.org/1999/xlink" xmlns:svgjs="http://svgjs.com/svgjs" width="1440" height="560" preserveAspectRatio="none" viewBox="0 0 1440 560"><g mask="url(&quot;#SvgjsMask3033&quot;)" fill="none"><path d="M132.91 133.79L254.15 203.79L254.15 343.79L132.91 413.79L11.66 343.79L11.66 203.79zM132.91 553.79L254.15 623.79L254.15 763.79L132.91 833.79L11.66 763.79L11.66 623.79zM254.15 -76.21L375.4 -6.21L375.4 133.79L254.15 203.79L132.91 133.79L132.91 -6.21zM375.4 133.79L496.65 203.79L496.65 343.79L375.4 413.79L254.15 343.79L254.15 203.79zM739.14 -76.21L860.39 -6.21L860.39 133.79L739.14 203.79L617.89 133.79L617.89 -6.21zM981.64 343.79L1102.88 413.79L1102.88 553.79L981.64 623.79L860.39 553.79L860.39 413.79zM1345.38 553.79L1466.62 623.79L1466.62 763.79L1345.38 833.79L1224.13 763.79L1224.13 623.79z" stroke="url(#SvgjsLinearGradient3034)" stroke-width="2"></path><path d="M118.91 133.79 a14 14 0 1 0 28 0 a14 14 0 1 0 -28 0zM240.15 203.79 a14 14 0 1 0 28 0 a14 14 0 1 0 -28 0zM240.15 343.79 a14 14 0 1 0 28 0 a14 14 0 1 0 -28 0zM118.91 413.79 a14 14 0 1 0 28 0 a14 14 0 1 0 -28 0zM-2.34 343.79 a14 14 0 1 0 28 0 a14 14 0 1 0 -28 0zM-2.34 203.79 a14 14 0 1 0 28 0 a14 14 0 1 0 -28 0zM118.91 553.79 a14 14 0 1 0 28 0 a14 14 0 1 0 -28 0zM240.15 623.79 a14 14 0 1 0 28 0 a14 14 0 1 0 -28 0zM240.15 763.79 a14 14 0 1 0 28 0 a14 14 0 1 0 -28 0zM118.91 833.79 a14 14 0 1 0 28 0 a14 14 0 1 0 -28 0zM-2.34 763.79 a14 14 0 1 0 28 0 a14 14 0 1 0 -28 0zM-2.34 623.79 a14 14 0 1 0 28 0 a14 14 0 1 0 -28 0zM240.15 -76.21 a14 14 0 1 0 28 0 a14 14 0 1 0 -28 0zM361.4 -6.21 a14 14 0 1 0 28 0 a14 14 0 1 0 -28 0zM361.4 133.79 a14 14 0 1 0 28 0 a14 14 0 1 0 -28 0zM118.91 -6.21 a14 14 0 1 0 28 0 a14 14 0 1 0 -28 0zM482.65 203.79 a14 14 0 1 0 28 0 a14 14 0 1 0 -28 0zM482.65 343.79 a14 14 0 1 0 28 0 a14 14 0 1 0 -28 0zM361.4 413.79 a14 14 0 1 0 28 0 a14 14 0 1 0 -28 0zM725.14 -76.21 a14 14 0 1 0 28 0 a14 14 0 1 0 -28 0zM846.39 -6.21 a14 14 0 1 0 28 0 a14 14 0 1 0 -28 0zM846.39 133.79 a14 14 0 1 0 28 0 a14 14 0 1 0 -28 0zM725.14 203.79 a14 14 0 1 0 28 0 a14 14 0 1 0 -28 0zM603.89 133.79 a14 14 0 1 0 28 0 a14 14 0 1 0 -28 0zM603.89 -6.21 a14 14 0 1 0 28 0 a14 14 0 1 0 -28 0zM967.64 343.79 a14 14 0 1 0 28 0 a14 14 0 1 0 -28 0zM1088.88 413.79 a14 14 0 1 0 28 0 a14 14 0 1 0 -28 0zM1088.88 553.79 a14 14 0 1 0 28 0 a14 14 0 1 0 -28 0zM967.64 623.79 a14 14 0 1 0 28 0 a14 14 0 1 0 -28 0zM846.39 553.79 a14 14 0 1 0 28 0 a14 14 0 1 0 -28 0zM846.39 413.79 a14 14 0 1 0 28 0 a14 14 0 1 0 -28 0zM1331.38 553.79 a14 14 0 1 0 28 0 a14 14 0 1 0 -28 0zM1452.62 623.79 a14 14 0 1 0 28 0 a14 14 0 1 0 -28 0zM1452.62 763.79 a14 14 0 1 0 28 0 a14 14 0 1 0 -28 0zM1331.38 833.79 a14 14 0 1 0 28 0 a14 14 0 1 0 -28 0zM1210.13 763.79 a14 14 0 1 0 28 0 a14 14 0 1 0 -28 0zM1210.13 623.79 a14 14 0 1 0 28 0 a14 14 0 1 0 -28 0z" fill="url(#SvgjsLinearGradient3034)"></path><path d="M50.13 61.27L93.44 86.27L93.44 136.27L50.13 161.27L6.83 136.27L6.83 86.27zM6.83 136.27L50.13 161.27L50.13 211.27L6.83 236.27L-36.47 211.27L-36.47 161.27zM50.13 211.27L93.44 236.27L93.44 286.27L50.13 311.27L6.83 286.27L6.83 236.27zM6.83 286.27L50.13 311.27L50.13 361.27L6.83 386.27L-36.47 361.27L-36.47 311.27zM6.83 436.27L50.13 461.27L50.13 511.27L6.83 536.27L-36.47 511.27L-36.47 461.27zM93.44 436.27L136.74 461.27L136.74 511.27L93.44 536.27L50.13 511.27L50.13 461.27zM136.74 511.27L180.04 536.27L180.04 586.27L136.74 611.27L93.44 586.27L93.44 536.27zM180.04 136.27L223.34 161.27L223.34 211.27L180.04 236.27L136.74 211.27L136.74 161.27zM223.34 211.27L266.64 236.27L266.64 286.27L223.34 311.27L180.04 286.27L180.04 236.27zM180.04 436.27L223.34 461.27L223.34 511.27L180.04 536.27L136.74 511.27L136.74 461.27zM266.64 136.27L309.95 161.27L309.95 211.27L266.64 236.27L223.34 211.27L223.34 161.27zM309.95 211.27L353.25 236.27L353.25 286.27L309.95 311.27L266.64 286.27L266.64 236.27zM266.64 436.27L309.95 461.27L309.95 511.27L266.64 536.27L223.34 511.27L223.34 461.27zM396.55 61.27L439.86 86.27L439.86 136.27L396.55 161.27L353.25 136.27L353.25 86.27zM353.25 136.27L396.55 161.27L396.55 211.27L353.25 236.27L309.95 211.27L309.95 161.27zM396.55 361.27L439.86 386.27L439.86 436.27L396.55 461.27L353.25 436.27L353.25 386.27zM439.86 436.27L483.16 461.27L483.16 511.27L439.86 536.27L396.55 511.27L396.55 461.27zM483.16 511.27L526.46 536.27L526.46 586.27L483.16 611.27L439.86 586.27L439.86 536.27zM526.46 -13.73L569.76 11.27L569.76 61.27L526.46 86.27L483.16 61.27L483.16 11.27zM569.76 61.27L613.07 86.27L613.07 136.27L569.76 161.27L526.46 136.27L526.46 86.27zM526.46 136.27L569.76 161.27L569.76 211.27L526.46 236.27L483.16 211.27L483.16 161.27zM526.46 286.27L569.76 311.27L569.76 361.27L526.46 386.27L483.16 361.27L483.16 311.27zM569.76 361.27L613.07 386.27L613.07 436.27L569.76 461.27L526.46 436.27L526.46 386.27zM569.76 511.27L613.07 536.27L613.07 586.27L569.76 611.27L526.46 586.27L526.46 536.27zM613.07 -13.73L656.37 11.27L656.37 61.27L613.07 86.27L569.76 61.27L569.76 11.27zM613.07 286.27L656.37 311.27L656.37 361.27L613.07 386.27L569.76 361.27L569.76 311.27zM656.37 361.27L699.67 386.27L699.67 436.27L656.37 461.27L613.07 436.27L613.07 386.27zM613.07 436.27L656.37 461.27L656.37 511.27L613.07 536.27L569.76 511.27L569.76 461.27zM699.67 -13.73L742.97 11.27L742.97 61.27L699.67 86.27L656.37 61.27L656.37 11.27zM742.97 211.27L786.28 236.27L786.28 286.27L742.97 311.27L699.67 286.27L699.67 236.27zM829.58 61.27L872.88 86.27L872.88 136.27L829.58 161.27L786.28 136.27L786.28 86.27zM829.58 361.27L872.88 386.27L872.88 436.27L829.58 461.27L786.28 436.27L786.28 386.27zM916.18 61.27L959.49 86.27L959.49 136.27L916.18 161.27L872.88 136.27L872.88 86.27zM916.18 211.27L959.49 236.27L959.49 286.27L916.18 311.27L872.88 286.27L872.88 236.27zM916.18 361.27L959.49 386.27L959.49 436.27L916.18 461.27L872.88 436.27L872.88 386.27zM1002.79 61.27L1046.09 86.27L1046.09 136.27L1002.79 161.27L959.49 136.27L959.49 86.27zM959.49 136.27L1002.79 161.27L1002.79 211.27L959.49 236.27L916.18 211.27L916.18 161.27zM959.49 286.27L1002.79 311.27L1002.79 361.27L959.49 386.27L916.18 361.27L916.18 311.27zM1002.79 361.27L1046.09 386.27L1046.09 436.27L1002.79 461.27L959.49 436.27L959.49 386.27zM959.49 436.27L1002.79 461.27L1002.79 511.27L959.49 536.27L916.18 511.27L916.18 461.27zM1089.39 61.27L1132.69 86.27L1132.69 136.27L1089.39 161.27L1046.09 136.27L1046.09 86.27zM1046.09 286.27L1089.39 311.27L1089.39 361.27L1046.09 386.27L1002.79 361.27L1002.79 311.27zM1089.39 361.27L1132.69 386.27L1132.69 436.27L1089.39 461.27L1046.09 436.27L1046.09 386.27zM1046.09 436.27L1089.39 461.27L1089.39 511.27L1046.09 536.27L1002.79 511.27L1002.79 461.27zM1176 61.27L1219.3 86.27L1219.3 136.27L1176 161.27L1132.69 136.27L1132.69 86.27zM1132.69 136.27L1176 161.27L1176 211.27L1132.69 236.27L1089.39 211.27L1089.39 161.27zM1132.69 286.27L1176 311.27L1176 361.27L1132.69 386.27L1089.39 361.27L1089.39 311.27zM1176 361.27L1219.3 386.27L1219.3 436.27L1176 461.27L1132.69 436.27L1132.69 386.27zM1132.69 436.27L1176 461.27L1176 511.27L1132.69 536.27L1089.39 511.27L1089.39 461.27zM1176 511.27L1219.3 536.27L1219.3 586.27L1176 611.27L1132.69 586.27L1132.69 536.27zM1262.6 61.27L1305.9 86.27L1305.9 136.27L1262.6 161.27L1219.3 136.27L1219.3 86.27zM1219.3 136.27L1262.6 161.27L1262.6 211.27L1219.3 236.27L1176 211.27L1176 161.27zM1262.6 511.27L1305.9 536.27L1305.9 586.27L1262.6 611.27L1219.3 586.27L1219.3 536.27zM1305.9 136.27L1349.21 161.27L1349.21 211.27L1305.9 236.27L1262.6 211.27L1262.6 161.27zM1349.21 211.27L1392.51 236.27L1392.51 286.27L1349.21 311.27L1305.9 286.27L1305.9 236.27zM1305.9 286.27L1349.21 311.27L1349.21 361.27L1305.9 386.27L1262.6 361.27L1262.6 311.27zM1349.21 361.27L1392.51 386.27L1392.51 436.27L1349.21 461.27L1305.9 436.27L1305.9 386.27zM1305.9 436.27L1349.21 461.27L1349.21 511.27L1305.9 536.27L1262.6 511.27L1262.6 461.27zM1349.21 511.27L1392.51 536.27L1392.51 586.27L1349.21 611.27L1305.9 586.27L1305.9 536.27zM1392.51 -13.73L1435.81 11.27L1435.81 61.27L1392.51 86.27L1349.21 61.27L1349.21 11.27zM1392.51 136.27L1435.81 161.27L1435.81 211.27L1392.51 236.27L1349.21 211.27L1349.21 161.27zM1392.51 286.27L1435.81 311.27L1435.81 361.27L1392.51 386.27L1349.21 361.27L1349.21 311.27z" stroke="url(#SvgjsLinearGradient3035)" stroke-width="2"></path></g><defs><mask id="SvgjsMask3033"><rect width="1440" height="560" fill="#ffffff"></rect></mask><linearGradient x1="1219.9679999999998" y1="-220.02399999999997" x2="220.03199999999998" y2="780.024" gradientUnits="userSpaceOnUse" id="SvgjsLinearGradient3034"><stop stop-color="rgba(158, 0, 129, 1)" offset="0"></stop><stop stop-color="rgba(0, 133, 37, 1)" offset="1"></stop></linearGradient><linearGradient x1="220.03199999999998" y1="-220.02399999999997" x2="1219.9679999999998" y2="780.024" gradientUnits="userSpaceOnUse" id="SvgjsLinearGradient3035"><stop stop-color="#0e2a47" offset="0"></stop><stop stop-color="rgba(27, 158, 0, 1)" offset="1"></stop></linearGradient></defs></svg>