<svg xmlns="http://www.w3.org/2000/svg" viewBox="0 0 1080 1080"><defs><style>.cls-1{fill:#dbe5a3;}.cls-2{fill:#c9d887;}.cls-3{fill:#eacd92;}.cls-4{fill:#f2a96d;}.cls-5{fill:#f7e8aa;}.cls-6{fill:none;}.cls-7{fill:#bbb9f9;}.cls-8{fill:#fff8e9;}.cls-9{fill:#ffcfc5;}.cls-10{fill:#ffefca;}.cls-11{fill:#dff4e8;}.cls-12{fill:#7c5e52;}.cls-13{fill:#dcfff9;}.cls-14{fill:#b9eadb;}.cls-15{fill:#e8d780;}.cls-16{fill:#f7dbaa;}.cls-17{fill:#ffc38d;}.cls-18{fill:#ccead8;}.cls-19{fill:#fff;opacity:0.78;}</style></defs><g id="Layer_1" data-name="Layer 1"><ellipse class="cls-1" cx="540" cy="903.34" rx="491.71" ry="89.12"/><ellipse class="cls-2" cx="331.44" cy="910.75" rx="160.51" ry="36.2"/><ellipse class="cls-2" cx="499.99" cy="854.11" rx="9.28" ry="4.57"/><ellipse class="cls-2" cx="596.26" cy="962.11" rx="9.28" ry="4.57"/><ellipse class="cls-2" cx="122.49" cy="892.92" rx="9.28" ry="4.57"/><ellipse class="cls-2" cx="942.01" cy="902.06" rx="9.28" ry="4.57"/><path class="cls-3" d="M196.15,737.42c-6.82-15.65-21.11-28.85-39.1-28.28-16.2.52-30.75,14.14-28.45,31.06,1,7,5.56,14.74,13.39,15.14,8.35.44,13.22-7.19,10.63-14.8-5.59-16.4-28.52-18.09-41.88-12C95.11,735.6,87.11,752.3,89.81,769s16.36,29.53,32.8,32.36c7.66,1.32,17.08,1.19,23.63-3.54,6.21-4.49,8.25-13.54,2.4-19.21-5.59-5.42-14.24-4.71-19.88.11-6.22,5.32-8.84,14.48-8.16,22.43,1.85,21.74,24.56,31.1,43.83,28s36.11-15.72,45.4-32.65c2.78-5.08-5-9.63-7.78-4.55-10.31,18.82-35,35-57,27.13-11.26-4.05-18.6-15.59-14.34-27.43,1.41-3.91,6.08-10.65,11-7,6.91,5-7.78,8.34-10.61,8.42-22.86.67-41.36-23.82-29.26-45a28.44,28.44,0,0,1,26.23-13.94c5.21.39,10.85,2.53,14.3,6.6,1.67,2,3.1,7.36-1.26,5.11-2.58-1.33-3.51-5-3.74-7.62-1.09-13,11.82-21.25,23.62-19.94,13.24,1.47,22.36,12.17,27.38,23.7,2.31,5.3,10.07.72,7.77-4.54Z"/><path class="cls-4" d="M550.85,754.74s-35,60.67-35,67.61,57.3-4.68,57.3-4.68Z"/><path class="cls-5" d="M775.37,648.88c12.46,0,48.23,36.85,43.57,78.33S772.78,777,753.07,765.84s-28-33.64-22.82-61.3S757.22,648.88,775.37,648.88Z"/><path class="cls-6" d="M754.32,685.46a12.55,12.55,0,0,0,1.83-4.13c.26-1.18.11-2.68-1.1-3.29s-1.81.58-2,1.54a11.12,11.12,0,0,0,.89,5C754.08,684.86,754.2,685.16,754.32,685.46Z"/><path class="cls-6" d="M804.43,729.16a14.38,14.38,0,0,0-.1-5.15,2.08,2.08,0,0,0-.17-.65,1.43,1.43,0,0,0-.37.19,3.35,3.35,0,0,0-1.06,1.81,8.28,8.28,0,0,0,1,6.39A13.06,13.06,0,0,0,804.43,729.16Z"/><path class="cls-6" d="M765.46,732a7.91,7.91,0,0,0,1.51-5.14c0-1.3.07-3.39-.84-4.49s-1.75,1.22-2,1.86a10.41,10.41,0,0,0,.88,8.22A5.89,5.89,0,0,0,765.46,732Z"/><path class="cls-6" d="M798.37,686.6a7.73,7.73,0,0,0,.28-6.76c-.15-.3-.62-1.07-.91-1.14a.3.3,0,0,0-.13.18c-.07.22-.19.44-.26.67a7.54,7.54,0,0,0-.27,3.62A9.37,9.37,0,0,0,798.37,686.6Z"/><path class="cls-6" d="M777.15,687.58a7.53,7.53,0,0,0,1.08-4.61,5.61,5.61,0,0,0-.57-1.92,9.35,9.35,0,0,0-.52-.81,3.25,3.25,0,0,1-.23-.29,10.18,10.18,0,0,0-.55,3,10.5,10.5,0,0,0,.53,4A5.36,5.36,0,0,0,777.15,687.58Z"/><path class="cls-6" d="M743.5,731.42a14.1,14.1,0,0,0,1.49-2.89c.42-1.14,2.25-7.78-1-6.67s-1.63,6.9-.75,9.07C743.34,731.1,743.42,731.26,743.5,731.42Z"/><path class="cls-6" d="M786.68,732.36a16.77,16.77,0,0,0,.82-5.92,5.3,5.3,0,0,0-.76-2.51,5.36,5.36,0,0,0-.68-.83,1.72,1.72,0,0,0-.22-.14,1.41,1.41,0,0,0-.17.14,6.14,6.14,0,0,0-1.15,4.25,11.92,11.92,0,0,0,2.1,5.16Z"/><path class="cls-7" d="M797.35,679.55c.07-.23.19-.45.26-.67a.3.3,0,0,1,.13-.18c.29.07.76.84.91,1.14a7.73,7.73,0,0,1-.28,6.76,9.37,9.37,0,0,1-1.29-3.43A7.54,7.54,0,0,1,797.35,679.55Z"/><path class="cls-8" d="M744.17,751.61a11.25,11.25,0,0,1,3.91-1.32,7.74,7.74,0,0,1,3.26.82c2.29,1,4.35,2.52,6.76,3.29a9.85,9.85,0,0,0,7.78-.82c2.23-1.15,4.4-3.08,7-3.19s5.12,1.17,7.48,2.16c2.55,1.06,5.21,2,8,1.61s5.25-2.25,8-3.17c3.55-1.2,6.94.77,10.39,1.4a19.84,19.84,0,0,0,2.4.28c.82-1.06,1.6-2.17,2.34-3.34a15.23,15.23,0,0,1-4.32-.3c-3.14-.68-6.15-2.12-9.43-1.79-2.91.29-5.23,2-7.87,3s-4.91.45-7.36-.5-4.74-2.15-7.31-2.59a11.48,11.48,0,0,0-7.85,1.62c-2.07,1.18-4.18,2.87-6.69,2.69-2.31-.17-4.41-1.65-6.4-2.7-2.47-1.3-5.18-2.36-8-1.66-1.68.42-3.14,1.51-4.85,1.84s-3.59-.51-5.13-1.31a1.65,1.65,0,0,0-1.19-.16,45.58,45.58,0,0,0,2.72,4.45,8.63,8.63,0,0,0,1.52.36A8.77,8.77,0,0,0,744.17,751.61Z"/><path class="cls-9" d="M887,647.64c13,0,50.18,38.33,45.32,81.49s-48,51.79-68.52,40.19-29.14-35-23.74-63.77S868.08,647.64,887,647.64Z"/><path class="cls-10" d="M878.37,690.23q-6.64-3.59-13.1-7.48c-3.4-2.06-6.64,3.19-3.24,5.25q6.45,3.88,13.09,7.47C878.61,697.36,881.86,692.11,878.37,690.23Z"/><path class="cls-10" d="M915.21,722.72c-.78,2-2.94,3.76-4.16,5.49a52.6,52.6,0,0,0-3.63,6c-1.83,3.5,3.41,6.76,5.25,3.24a52.87,52.87,0,0,1,4.11-6.65c1.53-2.09,3.36-3.83,4.33-6.27C922.58,720.81,916.66,719.06,915.21,722.72Z"/><path class="cls-10" d="M876.36,745.15c-4.1.4-8.17,1-12.21,1.72s-2.41,6.72,1.49,6c3.5-.66,7-1.19,10.57-1.54a3.18,3.18,0,0,0,3.16-3C879.42,746.8,878,745,876.36,745.15Z"/><path class="cls-10" d="M903.28,682.62q-1.56-5.5-2.9-11.06c-.93-3.86-6.92-2.38-6,1.49q1.35,5.57,2.9,11.07C898.37,687.92,904.37,686.46,903.28,682.62Z"/><path class="cls-11" d="M888.17,709.14q-5.94,4.61-12.24,8.71c-3.3,2.16-.35,7.59,3,5.41q7-4.56,13.52-9.66C895.56,711.17,891.28,706.72,888.17,709.14Z"/><path class="cls-11" d="M874.77,662.23l-4.59-4.75a3.08,3.08,0,1,0-4.47,4.25l4.59,4.75a3.11,3.11,0,0,0,4.36.11A3.15,3.15,0,0,0,874.77,662.23Z"/><path class="cls-11" d="M926.4,696.21a60.53,60.53,0,0,1-10.84.72c-4-.09-4.13,6.08-.15,6.16a69.5,69.5,0,0,0,12.48-.89C931.81,701.57,930.3,695.58,926.4,696.21Z"/><path class="cls-11" d="M857.15,725.26a50.14,50.14,0,0,0-14.8-8.93c-3.71-1.45-5.46,4.47-1.79,5.9a41.76,41.76,0,0,1,12.13,7.29C855.67,732.09,860.16,727.86,857.15,725.26Z"/><path class="cls-11" d="M908.6,763.27a106.73,106.73,0,0,0-4.83-12.61c-1.65-3.61-7-.62-5.4,3a95.73,95.73,0,0,1,4.25,11.12C903.8,768.53,909.79,767.07,908.6,763.27Z"/><path class="cls-10" d="M276,320.15c-33,10.06-116.85,57.51-125.41,139.31s55.94,156.26,169.24,156.33c117,.07,158.71-48.54,177.8-101.18S497.91,387.89,443,347.8C389.27,308.61,332.78,302.84,276,320.15Z"/><path class="cls-9" d="M355.9,514.3s16.51-7.31,21.5-21.36c5.87,11.85,22.7,17.2,22.7,17.2s-5.42,44.53-18.3,49.52S356.49,518.69,355.9,514.3Z"/><path class="cls-10" d="M324,322.74s-7.46-162.44-25.46-200.63C283.06,89.26,255.07,76,236.63,99.28s-26.34,64.53,49.61,227.41C309.51,330.64,324,322.74,324,322.74Z"/><path class="cls-10" d="M329.71,320.55s22-145.76,36.44-185.27,43.9-43,57.07-33.81,15.8,41.71,0,93.08-54.44,136.09-54.44,136.09Z"/><path class="cls-10" d="M238,594.94s-43.9,44.78-58.83,97-14.05,115.9,3.95,146.63,89.84,45.22,144.28,47S445.61,872.4,467.12,846.5s55-137.86-36.18-252.88C358.24,586.59,238,594.94,238,594.94Z"/><path class="cls-10" d="M434.93,579.72a371,371,0,0,1,24.51,44.63c7.24,15.52,22,55.37,24.42,73-22.45,6.78-57.6.78-57.6.78L415,590.81Z"/><path class="cls-10" d="M220,860.55s2.79,20.19,4.25,32.92,7.17,29.42,23,28.54,25.32-38.63,26.93-54C252,853.08,220,860.55,220,860.55Z"/><path class="cls-10" d="M379.18,863.11S382,883.3,383.43,896s7.16,29.42,23,28.54,25.32-38.63,26.93-54C411.23,855.64,379.18,863.11,379.18,863.11Z"/><path class="cls-12" d="M311.3,451.28a13.84,13.84,0,0,1,13.59,15.07c-.65,7.78-10.7,13.46-17.83,10.46s-10.53-9.49-9.07-16.13S306.11,451.12,311.3,451.28Z"/><path class="cls-12" d="M426.26,451.28a13.83,13.83,0,0,1,13.59,15.07c-.65,7.78-10.69,13.46-17.82,10.46s-10.54-9.49-9.08-16.13S421.07,451.12,426.26,451.28Z"/><path class="cls-12" d="M296.28,404l19.87-3.09c3.74-.58,5.81-5.26,4.89-8.61-1.09-4-4.86-5.47-8.61-4.89l-19.87,3.09c-3.74.58-5.81,5.26-4.89,8.61,1.09,4,4.86,5.47,8.61,4.89Z"/><path class="cls-12" d="M415.88,400.49l20.76,1.34c9,.59,9-13.42,0-14l-20.76-1.34c-9-.58-9,13.42,0,14Z"/><path class="cls-12" d="M345.21,517.18c17,4.54,28-10.87,34.55-24.09l-5.75-.75a34,34,0,0,0,32.24,21.33c4.05-.1,4.06-6.4,0-6.3a27.6,27.6,0,0,1-26.17-16.7c-.93-2.25-4.42-3.45-5.76-.76-5.14,10.38-13.52,24.91-27.43,21.19-3.92-1-5.6,5-1.68,6.08Z"/><path class="cls-12" d="M351.67,515.5a161.2,161.2,0,0,0,10.24,29.37c3.41,7.37,7.91,18,17.52,18.2,9.3.16,13.3-9.47,15.85-16.82,3.78-10.89,5.76-22.28,7.86-33.58.73-4-5.34-5.66-6.08-1.68-1.47,8-2.88,15.93-4.91,23.76-1.58,6.09-4.44,22.11-12.7,21.88-7.41-.2-11.73-13.86-14.09-19.46a155.6,155.6,0,0,1-7.62-23.34c-1-3.94-7-2.27-6.07,1.67Z"/><path class="cls-9" d="M564.59,256.89c6.12-5.26,51.8,6.14,52.68,10.53s-29,73.76-34.25,76.39-28.53,2.2-31.61,0S558.44,262.16,564.59,256.89Z"/><path class="cls-9" d="M545.56,373.67c8-8.49,29-.59,31.9,10.83s-5.26,22.53-14.05,24-21.07-2.76-23.41-12.79S540.88,378.64,545.56,373.67Z"/><path class="cls-9" d="M300,285.2c-2.39.93-40.76-93.51-44.05-118.53s-.66-42.15,8.56-42.15,26.34,23,30.95,56.64S308.49,281.91,300,285.2Z"/><path class="cls-9" d="M363,285.21c-2.55-.28,7.15-101.76,15.82-125.46s18.92-37.67,27.1-33.4,12.68,32.62,1.22,64.53S372,286.22,363,285.21Z"/><path class="cls-7" d="M819.21,666.92c14.63,0,56.65,43.28,51.17,92S816.16,817.4,793,804.3s-32.9-39.51-26.81-72S797.88,666.92,819.21,666.92Z"/><path class="cls-6" d="M860.06,764.5c-.83,11-12.82,14-21.73,10.86-10.3-3.68-11.58-14.68-8.49-24.09,3.76-11.45,15.2-14.25,26-13.15,5.07.51,4.9,8.47-.2,8-4.63-.46-9.88-.82-14,1.86-3.83,2.5-4.93,6.83-5.23,11.14-.34,5,1,8,6.08,9.26,2.24.54,5.24.86,7.27-.54a5.44,5.44,0,0,0,2.18-3.17c.79-2.34-.26-3.2-3.15-2.56-2.75,4.32-9.53.15-6.77-4.19C848.07,748.48,860.87,753.86,860.06,764.5Z"/><path class="cls-13" d="M795,717.79c1.16,4,.63,8.47-2.7,11.31a11.46,11.46,0,0,1-5.72,2.67q-2.77.9-4.42-1.88Q780.9,727.21,784,726c4.42,2.6,8.61-4.18,4.19-6.78-9.69-5.69-17.22,6.35-12.79,14.9,4.87,9.41,18.13,5.73,23.89-.74,6.64-7.46,4.92-19.07-1.11-26.35a22.43,22.43,0,0,0-19.13-8c-1.76,3-3.4,6-4.89,9.2C782.56,704.6,792.38,708.71,795,717.79Z"/><path class="cls-10" d="M842.09,757.87c-2.76,4.34,4,8.51,6.77,4.19,2.89-.64,3.94.22,3.15,2.56a5.44,5.44,0,0,1-2.18,3.17c-2,1.4-5,1.08-7.27.54-5.1-1.23-6.42-4.23-6.08-9.26.3-4.31,1.4-8.64,5.23-11.14,4.09-2.68,9.34-2.32,14-1.86,5.1.52,5.27-7.44.2-8-10.84-1.1-22.28,1.7-26,13.15-3.09,9.41-1.81,20.41,8.49,24.09,8.91,3.18,20.9.15,21.73-10.86C860.87,753.86,848.07,748.48,842.09,757.87Z"/><path class="cls-13" d="M799,775c-8.64-.39-19.63,5.3-23.51,13.64a52.54,52.54,0,0,0,6.48,7.5,4.68,4.68,0,0,0,0-.67c-.16-6.23,7-10.3,12.31-11.89,6.2-1.85,11.5,1.34,13.89,7.17,1.95,4.75,2.9,13.35-1.19,17.34a7,7,0,0,1-.94.76,52.54,52.54,0,0,0,9,.78,21.73,21.73,0,0,0,2.59-9.56C818,788.74,811.72,775.53,799,775Z"/><path class="cls-13" d="M799.64,799.32c4.82-1.62,2.94-9.37-1.92-7.72a12.35,12.35,0,0,0-8.63,10.26q1.89,1.29,3.92,2.44a36.65,36.65,0,0,0,5,2.33C796.27,804,796.15,800.5,799.64,799.32Z"/><path class="cls-13" d="M831.66,695.35c4.77,9,17.38,13.52,25.9,7.62-1.31-2.31-2.69-4.53-4.11-6.67a4.53,4.53,0,0,0-.8.49c-4.28,3.28-12.21-1.29-14.06-5.51-1.34-3-.64-8.2,1.71-11.22a77.88,77.88,0,0,0-5.84-5.36C829.8,680.23,828.37,689.15,831.66,695.35Z"/><path class="cls-7" d="M663.11,657.57c13.16,0,51,38.92,46,82.75s-48.77,52.6-69.59,40.81S610,745.59,615.44,716.37,643.93,657.57,663.11,657.57Z"/><path class="cls-6" d="M699.86,745.34c-.75,9.9-11.53,12.63-19.55,9.76-9.26-3.31-10.41-13.2-7.63-21.66,3.38-10.3,13.67-12.82,23.42-11.83,4.56.46,4.41,7.62-.18,7.15-4.17-.42-8.89-.74-12.57,1.67-3.44,2.25-4.43,6.14-4.7,10-.31,4.53.88,7.23,5.46,8.33,2,.49,4.72.78,6.55-.48a4.92,4.92,0,0,0,2-2.85c.71-2.11-.24-2.88-2.83-2.31-2.48,3.89-8.58.13-6.1-3.76C689.08,730.93,700.59,735.76,699.86,745.34Z"/><path class="cls-10" d="M683.69,739.38c-2.48,3.89,3.62,7.65,6.1,3.76,2.59-.57,3.54.2,2.83,2.31a4.92,4.92,0,0,1-2,2.85c-1.83,1.26-4.53,1-6.55.48-4.58-1.1-5.77-3.8-5.46-8.33.27-3.88,1.26-7.77,4.7-10,3.68-2.41,8.4-2.09,12.57-1.67,4.59.47,4.74-6.69.18-7.15-9.75-1-20,1.53-23.42,11.83-2.78,8.46-1.63,18.35,7.63,21.66,8,2.87,18.8.14,19.55-9.76C700.59,735.76,689.08,730.93,683.69,739.38Z"/><path class="cls-13" d="M645,754.75c-7.77-.35-17.66,4.77-21.14,12.27a47.16,47.16,0,0,0,5.82,6.74,3.86,3.86,0,0,0,0-.6c-.14-5.61,6.28-9.27,11.07-10.7,5.58-1.66,10.35,1.21,12.5,6.45,1.76,4.27,2.61,12-1.07,15.6a5.76,5.76,0,0,1-.85.68,47.34,47.34,0,0,0,8.08.71,19.66,19.66,0,0,0,2.34-8.61C662.06,767.14,656.38,755.26,645,754.75Z"/><path class="cls-13" d="M645.52,776.66c4.33-1.47,2.64-8.43-1.74-6.95a11.08,11.08,0,0,0-7.75,9.23c1.13.77,2.3,1.5,3.52,2.19a31.72,31.72,0,0,0,4.52,2.1C642.48,780.87,642.37,777.72,645.52,776.66Z"/><path class="cls-11" d="M716.44,669.1c14.63,0,56.66,43.27,51.17,92s-54.21,58.48-77.36,45.38-32.9-39.52-26.81-72S695.12,669.1,716.44,669.1Z"/><path class="cls-6" d="M755.66,719.46A3.65,3.65,0,0,0,756,719a24.47,24.47,0,0,1-4.06,2.19,22.47,22.47,0,0,1-2.57.91A8.47,8.47,0,0,0,755.66,719.46Z"/><path class="cls-14" d="M686.16,772.67a.27.27,0,0,1,.08-.07,14.56,14.56,0,0,0,6.92-5.9,16,16,0,0,0,2-4.94,16.83,16.83,0,0,0,1.07-12.2c-2.43-8.28-9.3-14.26-17.43-15a17.28,17.28,0,0,0-16,4.37c-2,14-1.05,26.68,2.73,37.58C672.92,779.47,679.55,778.23,686.16,772.67Z"/><path class="cls-14" d="M725,697.84c-5.65,9.47-2,22.59,5.8,29.67,8.79,8,24.59,9.38,33.32.44.1-.1.18-.21.28-.31a111.34,111.34,0,0,0-22-40.07C735.39,688.5,728.33,692.31,725,697.84Zm26.88,23.38A24.47,24.47,0,0,0,756,719a3.65,3.65,0,0,1-.31.43,8.47,8.47,0,0,1-6.32,2.67A22.47,22.47,0,0,0,751.91,721.22Z"/><path class="cls-7" d="M752.23,762.49l-.21,0c-12.33-1.8-23.63,7.5-25.67,19.56-1.51,8.93,1.67,19.46,8.83,25.12,14.5-6.22,27.2-18.93,31.43-39.69a29.13,29.13,0,0,0-9.85-5.38A5.31,5.31,0,0,0,752.23,762.49Z"/><path class="cls-15" d="M704.73,786.56c-.6-1.87-2.72-3.55-4.79-2.81a7.52,7.52,0,0,0-4.92,4.67,5.72,5.72,0,0,0,2.5,6.71,5.67,5.67,0,0,0,7.21-8.57Z"/><path class="cls-15" d="M702.36,791.28h0l.12,0v0Z"/><path class="cls-7" d="M695,702.41a4,4,0,0,0-5.55-.2,5.16,5.16,0,0,0-2.79,1.4,5.76,5.76,0,0,0-1.66,3.82,5.59,5.59,0,0,0,5.16,5.74,6.15,6.15,0,0,0,5.88-3.07A6.52,6.52,0,0,0,695,702.41Z"/><path class="cls-7" d="M728.2,746.16a6.32,6.32,0,0,0-6.23-5,4.84,4.84,0,0,0-2.5.88l-.29.18a6.28,6.28,0,0,0-2.66,3.42,6.14,6.14,0,0,0,.06,3.65,5.9,5.9,0,0,0,7.19,3.88A6.12,6.12,0,0,0,728.2,746.16Z"/><path class="cls-5" d="M610,669.91c14.64,0,56.66,43.27,51.18,92S607,820.39,583.81,807.29s-32.9-39.52-26.81-72S588.68,669.91,610,669.91Z"/><path class="cls-6" d="M585.28,712.87a15,15,0,0,0,2.15-4.85c.3-1.39.12-3.15-1.3-3.87s-2.12.69-2.29,1.82c-.3,1.89.42,4.08,1,5.85C585,712.17,585.13,712.52,585.28,712.87Z"/><path class="cls-6" d="M644.14,764.21a16.91,16.91,0,0,0-.12-6.06,2.51,2.51,0,0,0-.2-.76,1.45,1.45,0,0,0-.43.22,3.94,3.94,0,0,0-1.25,2.13,9.69,9.69,0,0,0,1.18,7.5A16,16,0,0,0,644.14,764.21Z"/><path class="cls-6" d="M598.37,767.5a9.37,9.37,0,0,0,1.76-6c0-1.53.09-4-1-5.27s-2.06,1.43-2.31,2.18a12.16,12.16,0,0,0,1,9.65A6.26,6.26,0,0,0,598.37,767.5Z"/><path class="cls-6" d="M637,714.21a9.05,9.05,0,0,0,.33-7.94c-.17-.35-.73-1.25-1.07-1.34a.49.49,0,0,0-.15.21c-.08.26-.22.52-.31.79a9,9,0,0,0-.32,4.25A11,11,0,0,0,637,714.21Z"/><path class="cls-6" d="M612.09,715.36a7.92,7.92,0,0,0,.57-1.08,8.73,8.73,0,0,0,.7-4.34,6.58,6.58,0,0,0-.67-2.25,9.07,9.07,0,0,0-.61-1c-.06-.09-.23-.23-.27-.34a11.87,11.87,0,0,0-.64,3.58,12.11,12.11,0,0,0,.62,4.74C611.88,715,612,715.15,612.09,715.36Z"/><path class="cls-6" d="M572.56,766.86a16.07,16.07,0,0,0,1.75-3.4c.5-1.33,2.65-9.14-1.13-7.83s-1.92,8.11-.88,10.65C572.38,766.48,572.48,766.67,572.56,766.86Z"/><path class="cls-6" d="M623.29,768a19.53,19.53,0,0,0,1-7,6.27,6.27,0,0,0-.89-3,5.73,5.73,0,0,0-.8-1,1.46,1.46,0,0,0-.26-.17,1.93,1.93,0,0,0-.2.17,7.21,7.21,0,0,0-1.35,5,14,14,0,0,0,2.47,6C623.24,768.07,623.27,768,623.29,768Z"/><path class="cls-7" d="M571.7,726.07a21.69,21.69,0,0,0,12-5.35c.42-.36.84-.75,1.25-1.16a15.73,15.73,0,0,0,4.85,3.69A22.06,22.06,0,0,0,602.83,725a20,20,0,0,0,9-3.72c3.3,2.57,8,3.53,12.06,3.65A19,19,0,0,0,637,720.72l.33-.32a15.08,15.08,0,0,0,3.41,2,17.78,17.78,0,0,0,15-.77c-.46-1.24-.94-2.45-1.44-3.65a16.35,16.35,0,0,1-4.42,1.5,13.06,13.06,0,0,1-10-2.2,14.61,14.61,0,0,0,2.22-7.53,11.37,11.37,0,0,0-1.59-6c-1.24-1.93-3.69-3.58-6-2.4-2,1-2.69,3.59-3,5.66a13.5,13.5,0,0,0,.57,6,15.67,15.67,0,0,0,2.38,4.55c-3.88,3.51-9.88,4.07-15,2.81a14.8,14.8,0,0,1-4.72-1.92,12.14,12.14,0,0,0,1.49-12.52c-1-2.08-3-4.16-5.56-3.39-2.12.66-2.89,3-3.23,5a15.85,15.85,0,0,0,1.71,10.86,15,15,0,0,1-3.95,2c-5.94,2-13.41,1.21-17.7-3.75h0a21.09,21.09,0,0,0,3.61-7,8,8,0,0,0-1-7.11,5.85,5.85,0,0,0-5.64-2.4,6.07,6.07,0,0,0-4.52,5,15.76,15.76,0,0,0,1,7.7,21,21,0,0,0,1.56,3.48l-.29.31a18.81,18.81,0,0,1-8.14,5,14.45,14.45,0,0,1-12.59-2.36c-.48,1.28-.94,2.56-1.37,3.85A17.92,17.92,0,0,0,571.7,726.07Zm64.12-20.14c.09-.27.23-.53.31-.79a.49.49,0,0,1,.15-.21c.34.09.9,1,1.07,1.34a9.05,9.05,0,0,1-.33,7.94,11,11,0,0,1-1.52-4A9,9,0,0,1,635.82,705.93ZM611.17,710a11.87,11.87,0,0,1,.64-3.58c0,.11.21.25.27.34a9.07,9.07,0,0,1,.61,1,6.58,6.58,0,0,1,.67,2.25,8.73,8.73,0,0,1-.7,4.34,7.92,7.92,0,0,1-.57,1.08c-.1-.21-.21-.41-.3-.64A12.11,12.11,0,0,1,611.17,710Zm-27.33-4c.17-1.13,1-2.47,2.29-1.82s1.6,2.48,1.3,3.87a15,15,0,0,1-2.15,4.85c-.15-.35-.29-.7-.41-1C584.26,710.05,583.54,707.86,583.84,706Z"/><path class="cls-7" d="M563.59,777.27a16.74,16.74,0,0,0,8.52-3.9,14.82,14.82,0,0,0,1.72,1.64,15.54,15.54,0,0,0,8.09,3.5,18.21,18.21,0,0,0,9-1.73,40.09,40.09,0,0,0,6.19-3.08,16.67,16.67,0,0,0,3.94,3,21.06,21.06,0,0,0,16.19,1.39,17.5,17.5,0,0,0,6.2-3.29,12.89,12.89,0,0,0,9.68,4.1,15.28,15.28,0,0,0,10.71-5,16.44,16.44,0,0,0,3.26,2,15.46,15.46,0,0,0,10.7.82q.85-2.4,1.53-5a11.67,11.67,0,0,1-13.21-1.17,19.72,19.72,0,0,0,2.15-8c.14-2.45.16-6.07-1.54-8-2.09-2.41-5.55-1-7.13,1.22a11.46,11.46,0,0,0-1.54,8.48,15.26,15.26,0,0,0,3,6.71,10.79,10.79,0,0,1-3.05,2.51,9.83,9.83,0,0,1-10.32-.24,11.77,11.77,0,0,1-1.76-1.56,19.61,19.61,0,0,0,2-6.48c.49-3,.59-6.23-1-9a7.91,7.91,0,0,0-2.83-3,3.54,3.54,0,0,0-4.68.82c-4.22,4.41-2.8,11,.13,15.64.42.67.86,1.33,1.33,2a8.68,8.68,0,0,1-1.36,1,17.31,17.31,0,0,1-11.76,2.11,14.56,14.56,0,0,1-7.46-3.63,12.42,12.42,0,0,0,3.07-4.71,18.49,18.49,0,0,0,.4-9.11c-.41-2.27-1.6-4.71-4-5.39-3.18-.92-5.49,2-6.53,4.55a14.91,14.91,0,0,0-.82,7.54,16.61,16.61,0,0,0,2.25,6.41c-.28.17-.56.34-.85.5-3.64,2-8.23,4.33-12.49,3.39a12.05,12.05,0,0,1-6.48-3.93,19.28,19.28,0,0,0,1.43-2.05,21.91,21.91,0,0,0,2.78-7.4c.46-2.53.55-5.38-1.12-7.52a5.57,5.57,0,0,0-7.16-1.14c-2.58,1.43-3.67,4.34-3.76,7.16a20.36,20.36,0,0,0,2.67,10.56,12.93,12.93,0,0,1-12,2.9c.39,1.46.83,2.89,1.31,4.29A17.28,17.28,0,0,0,563.59,777.27Zm78.55-17.53a3.94,3.94,0,0,1,1.25-2.13,1.45,1.45,0,0,1,.43-.22,2.51,2.51,0,0,1,.2.76,16.91,16.91,0,0,1,.12,6.06,16,16,0,0,1-.82,3A9.69,9.69,0,0,1,642.14,759.74Zm-21.39,2.34a7.21,7.21,0,0,1,1.35-5,1.93,1.93,0,0,1,.2-.17,1.46,1.46,0,0,1,.26.17,5.73,5.73,0,0,1,.8,1,6.27,6.27,0,0,1,.89,3,19.53,19.53,0,0,1-1,7c0,.06,0,.11-.07.17A14,14,0,0,1,620.75,762.08Zm-23.91-3.7c.25-.75,1.31-3.39,2.31-2.18s1,3.74,1,5.27a9.37,9.37,0,0,1-1.76,6,6.26,6.26,0,0,1-.5.53A12.16,12.16,0,0,1,596.84,758.38Zm-23.66-2.75c3.78-1.31,1.63,6.5,1.13,7.83a16.07,16.07,0,0,1-1.75,3.4c-.08-.19-.18-.38-.26-.58C571.26,763.74,569.41,756.93,573.18,755.63Z"/><path class="cls-8" d="M573.35,790.58c1.49-.62,2.94-1.52,4.59-1.55a8.82,8.82,0,0,1,3.83,1c2.69,1.21,5.12,3,8,3.86a11.6,11.6,0,0,0,9.14-1c2.62-1.35,5.17-3.62,8.23-3.75s6,1.38,8.79,2.53c3,1.25,6.11,2.31,9.4,1.9,3.45-.44,6.17-2.64,9.39-3.73,4.17-1.41,8.15.91,12.21,1.65a24.62,24.62,0,0,0,2.82.33q1.44-1.86,2.74-3.92a18.29,18.29,0,0,1-5.07-.35c-3.69-.8-7.23-2.49-11.08-2.11-3.42.34-6.14,2.34-9.25,3.57s-5.77.53-8.64-.59-5.57-2.52-8.59-3a13.49,13.49,0,0,0-9.22,1.91c-2.43,1.38-4.91,3.36-7.86,3.15-2.71-.19-5.17-1.93-7.51-3.16-2.91-1.53-6.09-2.78-9.41-2-2,.49-3.69,1.78-5.69,2.16s-4.22-.59-6-1.54a2,2,0,0,0-1.39-.19,53.4,53.4,0,0,0,3.19,5.24,12,12,0,0,0,1.79.42A10.37,10.37,0,0,0,573.35,790.58Z"/><path class="cls-8" d="M576.9,737.61a34.07,34.07,0,0,1,6-1.91,8.24,8.24,0,0,1,5.79,1.13c2.06,1.18,4,2.52,6.32,3.12a15.39,15.39,0,0,0,6.95.17,15,15,0,0,0,6-2.78c1.68-1.24,3.26-2.66,5.49-2.47s4.51,1.54,6.61,2.45a20.47,20.47,0,0,0,7.29,1.73,12.14,12.14,0,0,0,7.18-1.62c1.66-1.06,3-2.56,4.79-3.46s3.58-.18,5.22.71a27.73,27.73,0,0,0,6,2.85,19.21,19.21,0,0,0,8.47.12q.6-.1,1.2-.24c-.25-1.31-.52-2.6-.83-3.89-.59.13-1.18.25-1.77.34a13.67,13.67,0,0,1-6.75-.4c-3.9-1.36-7-4.75-11.5-3.71-4,.92-6.09,5.11-10.31,5.33a16.41,16.41,0,0,1-6.82-1.16,66.86,66.86,0,0,0-6.33-2.61,9.5,9.5,0,0,0-6.64.41c-1.91.88-3.37,2.47-5.21,3.46a11.36,11.36,0,0,1-11.48-.65,17.78,17.78,0,0,0-6-2.75,13.94,13.94,0,0,0-6.09.39c-4.27,1.16-8.52,4-13.11,3.31-3.54-.5-6.57-2.78-9.23-5.22-.36,1.46-.69,2.91-1,4.37a23.34,23.34,0,0,0,7,4.12C568.48,740.29,572.72,739.2,576.9,737.61Z"/><circle class="cls-16" cx="260.64" cy="506.87" r="39.37"/><path class="cls-16" d="M497.63,514.61a125.85,125.85,0,0,0,7.2-40.54,39.36,39.36,0,1,0-22.33,72.16A166.81,166.81,0,0,0,497.63,514.61Z"/><path class="cls-17" d="M550.85,754.74c-2.55,8.9-.53,161.41,2.76,167.3S836.07,930.2,844,927.57s6-172.17,4-172.83S552.62,748.55,550.85,754.74Z"/><path class="cls-4" d="M848,754.74c6.36-4.83,84.95-47,88.46-47s-.49,141.87-2.69,145.38-85.16,74-89.78,74.42S848,754.74,848,754.74Z"/><path class="cls-17" d="M848,754.74c1.43-4.79,84.07-47,88.46-47s38.27,46.3,35.63,50.91-85,67.17-87.58,67.17S847.32,756.94,848,754.74Z"/><path class="cls-3" d="M260.49,650.25l45.28-35,23.43-18.08c3.19-2.46,6.84-6.3,10.82-7.39,5.53-1.52,6.13,5.34,5.89,9.07-1.06,16.61-7.94,33.54-15.28,48.25-7.52,15.07-16.66,29.23-26,43.2-3.23,4.82,4.56,9.33,7.77,4.54,16.82-25.07,33.41-51.5,40.14-81.32,2.33-10.3,6.34-31.79-9.94-32.94-7.38-.53-13.27,5.24-18.7,9.42l-21.08,16.27-46.85,36.15c-4.52,3.49,0,11.31,4.55,7.78Z"/><path class="cls-3" d="M439.35,586.72c-7.29-9.73-19.81-22-32.56-12.87-10.39,7.41-10.2,23.61-9.34,34.88,2.45,32,19.12,60.1,37.88,85.28,3.42,4.59,11.24.11,7.77-4.55-14.82-19.89-28.5-41.29-34.26-65.73-2.58-10.94-4.52-24.23-1.26-35.25,1.32-4.48,4.09-9,9.36-8.65,6.52.39,11.09,6.69,14.64,11.44,3.42,4.58,11.24.1,7.77-4.55Z"/><path class="cls-18" d="M709.64,582.12,675,543.5c-4.31-4.8-11.37,2.3-7.08,7.07l34.66,38.62c4.31,4.8,11.36-2.29,7.07-7.07Z"/><path class="cls-18" d="M745.09,573.74l-.41-35.15c-.08-6.43-10.08-6.45-10,0l.41,35.15c.08,6.43,10.08,6.45,10,0Z"/><path class="cls-18" d="M786.11,583.54l13.17-35.86c2.22-6-7.44-8.66-9.64-2.66l-13.18,35.86c-2.22,6,7.44,8.66,9.65,2.66Z"/><path class="cls-19" d="M442.61,794.69c1.12,32.35-37.75,43.75-86.15,45.44s-88-7-89.09-39.34,37.19-59.93,85.58-61.62S441.48,762.34,442.61,794.69Z"/><path class="cls-4" d="M602.62,925.89l2.58-62.27s-25.4,1.17-25.4-.88,39.22-40.1,46-40.68,36.58,36.8,37.46,39.18-18.64,1.79-20.44,3,.31,62.84.31,62.84Z"/><path class="cls-10" d="M697.54,826.41c4.21-1.1,104.61-1.55,107.76.16s1,59,.39,60.34-104.52,1.94-106,.74S695.47,827,697.54,826.41Z"/><path class="cls-4" d="M715.74,854.28a8.76,8.76,0,0,0,9.44-.94c1.92-1.36,3.38-3.91,5.57-4.8,3.15-1.28,3.57.83,4.91,3.18,1.54,2.72,4.12,4.4,7.34,3.65a8.39,8.39,0,0,0,3.89-2.29c1.58-1.51,3.8-6.36,6.34-4.06.93.84,1.23,2.79,2.07,3.81a6.29,6.29,0,0,0,4,2.39c4.64.66,6.15-3.16,9.58-5.06,5-2.78,7.52,5.26,12.24,6.4a6.5,6.5,0,0,0,7.37-3.09c1.73-3-2.87-5.64-4.59-2.68-1.27,2.17-8-5.86-10-6.65-3-1.15-5.59-.31-8,1.57-1.54,1.19-4.33,5.25-6.88,3-.88-.76-1.19-2.71-1.93-3.69a6.06,6.06,0,0,0-5.81-2.57c-4.13.59-4.59,4.41-7.53,6.31-4,2.59-4.65-3.61-7.14-5.29s-5.54-1.28-8,0c-2.84,1.48-6.68,7.9-10.16,6.22-3.07-1.48-5.77,3.1-2.68,4.6Z"/><path class="cls-4" d="M718.58,870.89l66.06.68c3.42,0,3.43-5.28,0-5.32l-66.06-.68c-3.42,0-3.42,5.29,0,5.32Z"/><path class="cls-1" d="M691,932.77s-8.71-8.57-3-13,14.53,7.76,14.53,7.76S709.33,913,714.88,913s7.4,6.37,2.2,19.76C709.46,936.06,691,932.77,691,932.77Z"/></g></svg>