<svg xmlns="http://www.w3.org/2000/svg" version="1.1" xmlns:xlink="http://www.w3.org/1999/xlink" xmlns:svgjs="http://svgjs.com/svgjs" width="640" height="640" preserveAspectRatio="none" viewBox="0 0 640 640"><g mask="url(&quot;#SvgjsMask2480&quot;)" fill="none"><rect width="640" height="640" x="0" y="0" fill="url(#SvgjsLinearGradient2481)"></rect><path d="M640 0L346.42 0L640 314.9z" fill="rgba(255, 255, 255, .1)"></path><path d="M346.42 0L640 314.9L640 470.7L301.87 0z" fill="rgba(255, 255, 255, .075)"></path><path d="M301.87 0L640 470.7L640 482.57L176.34 0z" fill="rgba(255, 255, 255, .05)"></path><path d="M176.34000000000003 0L640 482.57L640 524.78L165.10000000000002 0z" fill="rgba(255, 255, 255, .025)"></path><path d="M0 640L14.08 640L0 423.61z" fill="rgba(0, 0, 0, .1)"></path><path d="M0 423.61L14.08 640L245.64000000000001 640L0 361z" fill="rgba(0, 0, 0, .075)"></path><path d="M0 361L245.64000000000001 640L414.04 640L0 170.63z" fill="rgba(0, 0, 0, .05)"></path><path d="M0 170.63L414.04 640L448.20000000000005 640L0 92.72999999999999z" fill="rgba(0, 0, 0, .025)"></path></g><defs><mask id="SvgjsMask2480"><rect width="640" height="640" fill="#ffffff"></rect></mask><linearGradient x1="0%" y1="0%" x2="100%" y2="100%" gradientUnits="userSpaceOnUse" id="SvgjsLinearGradient2481"><stop stop-color="#0e2a47" offset="0"></stop><stop stop-color="rgba(255, 255, 255, 1)" offset="1"></stop></linearGradient></defs></svg>