<svg xmlns="http://www.w3.org/2000/svg" version="1.1" xmlns:xlink="http://www.w3.org/1999/xlink" xmlns:svgjs="http://svgjs.com/svgjs" width="1440" height="560" preserveAspectRatio="none" viewBox="0 0 1440 560"><g mask="url(&quot;#SvgjsMask2464&quot;)" fill="none"><rect width="1440" height="560" x="0" y="0" fill="url(#SvgjsLinearGradient2465)"></rect><path d="M1440 0L920 0L1440 40.21z" fill="rgba(255, 255, 255, .1)"></path><path d="M920 0L1440 40.21L1440 103.1L827.15 0z" fill="rgba(255, 255, 255, .075)"></path><path d="M827.15 0L1440 103.1L1440 205.89999999999998L397.26 0z" fill="rgba(255, 255, 255, .05)"></path><path d="M397.26 0L1440 205.89999999999998L1440 246.99999999999997L394.40999999999997 0z" fill="rgba(255, 255, 255, .025)"></path><path d="M0 560L4.25 560L0 521.12z" fill="rgba(0, 0, 0, .1)"></path><path d="M0 521.12L4.25 560L144.33 560L0 340.89z" fill="rgba(0, 0, 0, .075)"></path><path d="M0 340.89L144.33 560L678.12 560L0 297.03999999999996z" fill="rgba(0, 0, 0, .05)"></path><path d="M0 297.04L678.12 560L1069.73 560L0 223.5z" fill="rgba(0, 0, 0, .025)"></path></g><defs><mask id="SvgjsMask2464"><rect width="1440" height="560" fill="#ffffff"></rect></mask><linearGradient x1="15.28%" y1="-39.29%" x2="84.72%" y2="139.29%" gradientUnits="userSpaceOnUse" id="SvgjsLinearGradient2465"><stop stop-color="#0e2a47" offset="0"></stop><stop stop-color="rgba(255, 255, 255, 1)" offset="1"></stop></linearGradient></defs></svg>